<?xml version="1.0" encoding="UTF-8" standalone="no"?>
<!-- Created with Inkscape (http://www.inkscape.org/) -->

<svg
   xmlns:dc="http://purl.org/dc/elements/1.1/"
   xmlns:cc="http://creativecommons.org/ns#"
   xmlns:rdf="http://www.w3.org/1999/02/22-rdf-syntax-ns#"
   xmlns:svg="http://www.w3.org/2000/svg"
   xmlns="http://www.w3.org/2000/svg"
   xmlns:sodipodi="http://sodipodi.sourceforge.net/DTD/sodipodi-0.dtd"
   xmlns:inkscape="http://www.inkscape.org/namespaces/inkscape"
   width="211.74481"
   height="946.74188"
   id="svg6890"
   version="1.1"
   inkscape:version="0.47 r22583"
   sodipodi:docname="mum.svg">
  <defs
     id="defs3">
    <inkscape:path-effect
       effect="skeletal"
       id="path-effect6976"
       is_visible="true"
       pattern="M 0,5 C 0,2.24 2.24,0 5,0 7.76,0 10,2.24 10,5 10,7.76 7.76,10 5,10 2.24,10 0,7.76 0,5 z"
       copytype="single_stretched"
       prop_scale="1"
       scale_y_rel="false"
       spacing="0"
       normal_offset="0"
       tang_offset="0"
       prop_units="false"
       vertical_pattern="false"
       fuse_tolerance="0" />
    <inkscape:path-effect
       effect="skeletal"
       id="path-effect6972"
       is_visible="true"
       pattern="M 0,5 C 0,2.24 2.24,0 5,0 7.76,0 10,2.24 10,5 10,7.76 7.76,10 5,10 2.24,10 0,7.76 0,5 z"
       copytype="single_stretched"
       prop_scale="1"
       scale_y_rel="false"
       spacing="0"
       normal_offset="0"
       tang_offset="0"
       prop_units="false"
       vertical_pattern="false"
       fuse_tolerance="0" />
    <inkscape:path-effect
       effect="skeletal"
       id="path-effect6968"
       is_visible="true"
       pattern="M 0,5 C 0,2.24 2.24,0 5,0 7.76,0 10,2.24 10,5 10,7.76 7.76,10 5,10 2.24,10 0,7.76 0,5 z"
       copytype="single_stretched"
       prop_scale="1"
       scale_y_rel="false"
       spacing="0"
       normal_offset="0"
       tang_offset="0"
       prop_units="false"
       vertical_pattern="false"
       fuse_tolerance="0" />
    <inkscape:path-effect
       effect="skeletal"
       id="path-effect6964"
       is_visible="true"
       pattern="M 0,5 C 0,2.24 2.24,0 5,0 7.76,0 10,2.24 10,5 10,7.76 7.76,10 5,10 2.24,10 0,7.76 0,5 z"
       copytype="single_stretched"
       prop_scale="1"
       scale_y_rel="false"
       spacing="0"
       normal_offset="0"
       tang_offset="0"
       prop_units="false"
       vertical_pattern="false"
       fuse_tolerance="0" />
    <inkscape:path-effect
       effect="skeletal"
       id="path-effect6960"
       is_visible="true"
       pattern="M 0,5 C 0,2.24 2.24,0 5,0 7.76,0 10,2.24 10,5 10,7.76 7.76,10 5,10 2.24,10 0,7.76 0,5 z"
       copytype="single_stretched"
       prop_scale="1"
       scale_y_rel="false"
       spacing="0"
       normal_offset="0"
       tang_offset="0"
       prop_units="false"
       vertical_pattern="false"
       fuse_tolerance="0" />
    <inkscape:path-effect
       effect="skeletal"
       id="path-effect6956"
       is_visible="true"
       pattern="M 0,5 C 0,2.24 2.24,0 5,0 7.76,0 10,2.24 10,5 10,7.76 7.76,10 5,10 2.24,10 0,7.76 0,5 z"
       copytype="single_stretched"
       prop_scale="1"
       scale_y_rel="false"
       spacing="0"
       normal_offset="0"
       tang_offset="0"
       prop_units="false"
       vertical_pattern="false"
       fuse_tolerance="0" />
    <inkscape:path-effect
       effect="skeletal"
       id="path-effect6952"
       is_visible="true"
       pattern="M 0,5 C 0,2.24 2.24,0 5,0 7.76,0 10,2.24 10,5 10,7.76 7.76,10 5,10 2.24,10 0,7.76 0,5 z"
       copytype="single_stretched"
       prop_scale="1"
       scale_y_rel="false"
       spacing="0"
       normal_offset="0"
       tang_offset="0"
       prop_units="false"
       vertical_pattern="false"
       fuse_tolerance="0" />
    <inkscape:path-effect
       effect="skeletal"
       id="path-effect6928"
       is_visible="true"
       pattern="M 0,0 0,10 10,5 z"
       copytype="single_stretched"
       prop_scale="1"
       scale_y_rel="false"
       spacing="0"
       normal_offset="0"
       tang_offset="0"
       prop_units="false"
       vertical_pattern="false"
       fuse_tolerance="0" />
    <inkscape:path-effect
       effect="skeletal"
       id="path-effect6924"
       is_visible="true"
       pattern="M 0,0 0,10 10,5 z"
       copytype="single_stretched"
       prop_scale="1"
       scale_y_rel="false"
       spacing="0"
       normal_offset="0"
       tang_offset="0"
       prop_units="false"
       vertical_pattern="false"
       fuse_tolerance="0" />
    <inkscape:path-effect
       effect="skeletal"
       id="path-effect6918"
       is_visible="true"
       pattern="M 0,0 0,10 10,5 z"
       copytype="single_stretched"
       prop_scale="1"
       scale_y_rel="false"
       spacing="0"
       normal_offset="0"
       tang_offset="0"
       prop_units="false"
       vertical_pattern="false"
       fuse_tolerance="0" />
    <inkscape:perspective
       sodipodi:type="inkscape:persp3d"
       inkscape:vp_x="0 : 526.18109 : 1"
       inkscape:vp_y="0 : 1000 : 0"
       inkscape:vp_z="744.09448 : 526.18109 : 1"
       inkscape:persp3d-origin="372.04724 : 350.78739 : 1"
       id="perspective6896" />
    <inkscape:perspective
       id="perspective6906"
       inkscape:persp3d-origin="0.5 : 0.33333333 : 1"
       inkscape:vp_z="1 : 0.5 : 1"
       inkscape:vp_y="0 : 1000 : 0"
       inkscape:vp_x="0 : 0.5 : 1"
       sodipodi:type="inkscape:persp3d" />
  </defs>
  <sodipodi:namedview
     inkscape:document-units="mm"
     id="base"
     pagecolor="#ffffff"
     bordercolor="#666666"
     borderopacity="1.0"
     inkscape:pageopacity="0.0"
     inkscape:pageshadow="2"
     inkscape:zoom="0.5270708"
     inkscape:cx="105.8724"
     inkscape:cy="473.37094"
     inkscape:current-layer="layer1"
     showgrid="false"
     inkscape:window-width="1280"
     inkscape:window-height="744"
     inkscape:window-x="-4"
     inkscape:window-y="-4"
     inkscape:window-maximized="1" />
  <metadata
     id="metadata4">
    <rdf:RDF>
      <cc:Work
         rdf:about="">
        <dc:format>image/svg+xml</dc:format>
        <dc:type
           rdf:resource="http://purl.org/dc/dcmitype/StillImage" />
        <dc:title></dc:title>
      </cc:Work>
    </rdf:RDF>
  </metadata>
  <g
     inkscape:label="Layer 1"
     inkscape:groupmode="layer"
     id="layer1"
     transform="translate(-247.72342,-86.042619)">
    <g
       id="g6980">
      <path
         sodipodi:nodetypes="czccccscccscccccz"
         id="path6916"
         d="m 340.78435,391.37199 c 7.26436,6.09196 18.47339,-0.6484 18.73164,-8.81294 0.25823,-8.16456 -2.92695,-8.69251 -3.99154,-13.11018 -0.95103,-3.71487 -1.21412,-7.77747 -0.79341,-11.87208 0.68637,-7.95383 4.50395,-16.34492 8.78228,-24.89307 0,0 0,0 0,0 4.09513,-7.96101 9.01003,-16.34778 11.76955,-25.58307 1.25457,-4.19363 1.9321,-8.61542 1.64199,-12.95659 -0.32289,-4.61298 -1.79032,-8.96566 -3.9939,-12.75904 1.34169,4.17677 1.78192,8.55866 1.1656,12.66382 -0.56696,3.88319 -2.0334,7.54496 -3.90178,10.96473 -4.17064,7.6597 -10.30078,14.09649 -16.23003,21.39914 0,0 0,0 0,0 -6.33611,7.61394 -12.59063,16.17216 -16.43714,27.01549 0,0 0,0 0,0 -1.94699,5.72378 -2.96389,11.87722 -2.86199,18.20714 0.1748,7.40525 -1.14564,13.64467 6.11873,19.73665 z"
         style="fill:#000000;fill-opacity:1;stroke:none" />
      <path
         sodipodi:nodetypes="czscccccccccsscscscsssccccccsscccz"
         id="path6922"
         d="m 318.86095,378.5329 c 9.38648,4.15072 17.78571,-9.17141 11.83416,-16.98406 -5.95157,-7.81265 -8.41877,-9.35199 -13.84983,-14.24562 -4.33479,-3.91484 -8.14272,-8.21149 -10.88669,-12.94094 0,0 0,0 0,0 -4.83744,-7.90686 -6.55093,-18.17102 -5.56736,-28.26812 0,0 0,0 0,0 1.10172,-11.47953 5.51152,-23.09027 10.80329,-34.63256 0,0 0,0 0,0 6.01354,-12.96463 13.38482,-25.57443 20.85396,-38.315 7.55459,-12.86486 15.31113,-25.83605 22.11093,-39.40774 6.16091,-12.24232 11.64027,-25.19458 14.25436,-38.8976 0,0 0,0 0,-3e-5 1.17291,-6.16945 1.6911,-12.50468 1.24814,-18.79856 -3e-5,0 -3e-5,-2e-5 -3e-5,-2e-5 -0.43916,-6.19073 -1.85619,-12.2885 -4.24803,-17.95813 0,-2e-5 0,-2e-5 0,-2e-5 -2.61809,-6.18889 -6.34676,-11.79759 -10.73825,-16.7259 -5.31579,-5.964685 -11.54018,-10.974118 -18.12973,-15.315981 6.24432,4.825172 12.02764,10.255667 16.75595,16.450721 3.9025,5.11265 7.06416,10.7606 9.0709,16.74638 1.84186,5.47556 2.71519,11.23917 2.69188,16.9634 -0.0199,5.83445 -0.95925,11.65092 -2.47373,17.31586 0,0 0,0 0,0 -3.36909,12.6451 -9.52404,24.43082 -16.34522,35.88417 -7.55958,12.63788 -16.11511,24.74737 -24.64738,37.06872 -8.42674,12.14662 -16.93467,24.49677 -24.40403,37.80494 0,0 0,3e-5 0,3e-5 -6.6616,11.75001 -12.56326,24.66109 -15.29544,39.07972 0,3e-5 0,3e-5 -3e-5,3e-5 -2.49759,13.41859 -1.1066,27.86886 5.15223,40.98527 0,0 0,3e-5 0,3e-5 3.60899,7.30697 8.38679,13.78791 13.79841,19.37272 6.69078,6.92131 8.62508,10.66756 18.01154,14.81829 z"
         style="fill:#000000;fill-opacity:1;stroke:none" />
      <path
         sodipodi:nodetypes="cccccccccccc"
         id="path6926"
         d="m 363.44859,371.03094 c -3.42089,8.33321 8.77586,17.40291 16.48845,11.74555 15.93665,-12.82509 29.7654,-28.55282 41.08554,-45.56921 19.42087,-33.92267 17.56577,-72.40847 11.01511,-109.60829 -4.53633,-22.96754 -11.44931,-45.49499 -21.19803,-66.79027 -8.99541,-19.09813 -24.60899,-33.76066 -40.10677,-47.6365 -10.87336,-9.61948 -22.08251,-18.952425 -34.11109,-27.025962 11.41417,8.921048 21.83625,18.970582 31.94723,29.301932 14.36398,14.35658 27.19824,29.55111 35.29574,48.34602 8.10109,21.13965 12.67658,43.405 15.75434,65.77384 3.88865,33.19324 2.98159,67.50375 -15.46049,96.42755 -11.22102,17.12434 -30.86214,27.01869 -40.71003,45.03534 z"
         style="fill:#000000;fill-opacity:1;stroke:none" />
    </g>
    <path
       style="fill:#000000;fill-opacity:1;stroke:none"
       d="m 286.01524,405.06454 c 0.0236,-0.32263 1.16746,-0.59325 3.37275,-0.5992 1.10264,-0.003 2.47042,0.0668 4.08191,0.28775 1.6115,0.22099 3.46771,0.59234 5.52212,1.2422 0,0 0,0 0,0 3.10238,0.98501 6.65235,2.63738 10.08378,5.46107 2.65045,2.19382 5.154,5.05534 7.2065,8.52004 1.88755,3.1886 3.41552,6.83298 4.53757,10.7677 1.09804,3.85938 1.87477,7.9964 2.34504,12.34269 0.47028,4.34629 0.63344,8.90195 0.58266,13.56573 -0.0784,9.07884 -0.95677,18.75725 -2.24188,28.83138 0,0 0,10e-6 0,10e-6 -1.1615,9.13365 -2.66823,18.62138 -4.09749,28.41055 -1.16661,8.03137 -2.34936,16.19155 -2.73846,24.44879 -0.14888,3.21984 -0.18842,6.3882 0.0871,9.46225 0,0 0,10e-6 0,10e-6 0.24052,2.46346 0.58259,4.7641 1.34042,6.7231 0.61835,1.49913 1.29415,2.80154 2.17635,3.47517 0.54806,0.54209 1.39474,0.92589 2.35308,1.16932 0.29126,0.074 0.59221,0.13487 0.89741,0.18329 1.46431,0.12013 2.80321,0.0763 3.56383,-0.43309 10e-6,-1e-5 10e-6,-1e-5 10e-6,-1e-5 0.85327,-0.3374 1.66623,-1.37761 2.45598,-2.60631 1.0203,-1.6852 1.64605,-3.84309 2.21056,-6.20107 0.68503,-3.00997 1.03385,-6.17451 1.27427,-9.41238 0.61987,-8.48367 0.32636,-16.95785 -0.002,-25.27519 -0.4149,-10.29412 -1.02282,-20.23512 -1.40039,-29.71805 0,0 0,0 0,-10e-6 -0.42225,-10.53385 -0.58219,-20.53105 -0.12327,-29.7669 0.22309,-4.68308 0.59689,-9.2265 1.2275,-13.52963 0.63061,-4.30312 1.51706,-8.36611 2.67398,-12.12397 1.12289,-3.65642 2.59227,-7.05675 4.41701,-9.99799 1.85481,-3.00238 4.16763,-5.47522 6.66596,-7.24333 3.10103,-2.16588 6.31065,-3.1246 9.04647,-3.4585 0,0 0,0 10e-6,0 1.85257,-0.21984 3.47779,-0.18465 4.86171,-0.0528 1.38392,0.13189 2.52753,0.36218 3.433,0.60204 1.81094,0.47972 2.6763,0.97211 2.62297,1.26359 -0.0533,0.29148 -1.0301,0.37589 -2.80999,0.46771 -0.88994,0.0459 -1.98096,0.099 -3.24034,0.23664 -1.25938,0.13769 -2.68831,0.35847 -4.22123,0.79838 0,0 0,0 0,0 -2.23572,0.63493 -4.74132,1.76327 -6.93059,3.70241 -1.80624,1.57203 -3.42304,3.73813 -4.76601,6.34267 -1.32635,2.58384 -2.33784,5.60822 -3.137,8.96712 -0.82594,3.47943 -1.39671,7.25221 -1.74437,11.30088 -0.34767,4.04867 -0.47135,8.37364 -0.49678,12.92924 -0.0297,8.92716 0.50688,18.65107 1.2405,29.08165 0,0 0,10e-6 0,10e-6 0.6617,9.3667 1.51428,19.28906 2.1328,29.72767 0.50392,8.38232 0.92095,17.20706 0.36355,26.3999 -0.20952,3.51789 -0.59802,7.17227 -1.39854,10.89626 -0.59403,2.89373 -1.56296,5.98764 -3.25548,9.02703 -1.3453,2.48966 -3.48834,4.82678 -6.4704,6.49525 -10e-6,0 -2e-5,10e-6 -2e-5,10e-6 -3.18229,1.5527 -6.50269,1.95795 -9.49007,1.49599 -0.70165,-0.0832 -1.40319,-0.21451 -2.09918,-0.39469 -2.29,-0.59284 -4.50472,-1.71156 -6.45462,-3.36528 -2.44921,-2.25483 -4.04042,-4.90856 -4.94123,-7.53327 -1.14733,-3.21268 -1.66679,-6.38067 -1.88198,-9.34048 0,0 0,-10e-6 0,-10e-6 -0.29583,-3.72477 -0.23697,-7.34028 -0.0317,-10.81572 0.51782,-8.88879 1.8439,-17.34023 3.16883,-25.38754 1.61656,-9.86643 3.33098,-19.26007 4.726,-28.19474 0,-10e-6 0,-10e-6 1e-5,-10e-6 1.53825,-9.88018 2.72665,-19.17334 3.16556,-27.81705 0.21548,-4.45838 0.27346,-8.72505 0.0618,-12.74737 -0.21171,-4.02232 -0.69253,-7.8006 -1.47488,-11.31002 -0.78831,-3.55147 -1.86784,-6.78906 -3.26729,-9.6074 -1.50936,-3.04455 -3.37675,-5.62598 -5.41001,-7.66223 -2.61318,-2.63543 -5.51808,-4.42818 -8.13594,-5.68763 0,0 0,0 0,0 -1.74087,-0.8393 -3.3708,-1.44812 -4.8114,-1.93127 -1.44059,-0.48315 -2.69293,-0.83982 -3.71179,-1.13475 -2.03772,-0.58986 -3.1381,-0.95502 -3.11446,-1.27765 z"
       id="path6950" />
    <path
       style="fill:#000000;fill-opacity:1;stroke:none"
       d="m 443.68014,392.38796 c 0.59243,0.007 1.15864,2.75637 1.48195,7.82295 0.16166,2.53329 0.25681,5.6444 0.25945,9.27009 0.003,3.6257 -0.089,7.76589 -0.26516,12.35076 -0.34116,8.90565 -1.05308,19.51079 -1.83486,31.36693 -0.6004,9.12466 -1.27082,18.97196 -1.4585,29.32936 -0.12341,7.6664 -0.13651,15.50311 1.16177,23.16311 0.90535,5.50956 2.45741,11.11739 4.29437,16.84986 0.27782,0.86698 0.56062,1.73264 0.84684,2.59705 2.13939,6.43177 4.53495,12.77968 6.6867,19.15325 1.85759,5.41261 3.65575,11.11142 4.3844,17.11125 0.30481,2.36989 0.34963,4.97211 -0.11975,7.68044 -0.39943,2.39738 -1.45327,4.81127 -3.20612,6.92793 -1.11621,1.32728 -2.53945,2.6461 -4.31634,3.76415 -1.3715,0.88051 -3.08245,1.48556 -5.03752,1.66839 -3.91443,-0.0263 -6.87923,-1.57478 -8.70149,-3.56576 -2.5672,-2.57078 -4.41378,-5.34055 -5.90219,-8.04399 -1.48841,-2.70344 -2.61873,-5.34073 -3.67221,-7.72395 -2.16388,-4.70838 -2.91654,-9.43555 -3.03212,-13.71665 -0.0725,-2.45518 0.0199,-4.76082 0.16371,-6.92946 0.14377,-2.16864 0.33918,-4.20034 0.51311,-6.10701 0.2066,-2.37795 0.39062,-4.56937 0.47458,-6.58175 0.084,-2.01238 0.0693,-3.84602 -0.0494,-5.51062 0,0 0,0 0,0 -0.13268,-1.89959 -0.40737,-3.59142 -0.72938,-5.04664 -0.32201,-1.45522 -0.69028,-2.67617 -1.01035,-3.66979 -0.64013,-1.98723 -1.04959,-3.09485 -0.73859,-3.31699 0.1555,-0.11107 0.47883,0.009 0.94582,0.37942 0.46699,0.37075 1.07713,0.99404 1.7577,1.90551 0.68057,0.91148 1.4308,2.11329 2.13923,3.62866 0.70843,1.51538 1.37413,3.34671 1.85983,5.47058 0,0 0,0 0,10e-6 0.4182,1.82888 0.72547,3.85088 0.91847,6.02727 0.193,2.1764 0.27024,4.50731 0.29763,6.93317 0.03,1.95155 0.0311,3.97418 0.0747,6.04084 0.0436,2.06666 0.12925,4.17732 0.36856,6.30116 0.42393,3.6426 1.25072,7.4094 3.07529,10.67791 1.34039,2.40453 2.57022,4.864 3.89807,7.11245 1.32785,2.24845 2.75354,4.28576 4.56931,5.77139 1.08638,0.70094 1.92441,1.37548 2.08363,1.03171 0.15289,0.0186 0.4816,-0.18124 0.93086,-0.43634 0.65154,-0.39656 1.31727,-1.13043 2.08724,-2.02723 0.49214,-0.53049 0.78941,-1.4872 1.00098,-2.58098 0.24605,-1.37953 0.11931,-3.02585 -0.10823,-4.86737 -0.63185,-4.76285 -2.37088,-9.73362 -4.22949,-15.09706 -2.16679,-6.14911 -4.61645,-12.49843 -6.86013,-19.19856 -0.30077,-0.89423 -0.59801,-1.7953 -0.89014,-2.70331 -1.93158,-6.00377 -3.57006,-12.12293 -4.54885,-18.33696 -1.34249,-8.7716 -1.21651,-17.19405 -0.855,-25.03142 0.47073,-10.69317 1.51527,-20.66564 2.56824,-29.79085 1.36841,-11.87768 2.79531,-22.36559 3.9599,-31.14052 0.59956,-4.52432 1.14462,-8.58734 1.62114,-12.14168 0.47652,-3.55433 0.8862,-6.60005 1.25057,-9.08406 0.72872,-4.96803 1.29937,-7.69335 1.8918,-7.68665 z"
       id="path6954" />
    <path
       style="fill:#000000;fill-opacity:1;stroke:none"
       d="m 427.04214,564.31402 c 0.31006,0.0897 0.23179,1.40227 -0.0272,3.83485 -0.25902,2.43258 -0.65049,5.99651 -1.05804,10.63744 -0.45369,5.20775 -0.89862,11.73629 -1.26202,19.45723 -0.32367,6.885 -0.59901,14.69523 -0.77855,23.32396 -0.17953,8.62872 -0.26152,18.07628 -0.28076,28.23046 -0.0343,18.89925 0.21689,40.21065 0.74327,63.19406 0.43859,19.14095 1.06534,39.43155 1.88583,60.43889 0.10538,2.69805 0.21295,5.38417 0.3225,8.05746 0.97193,23.7134 2.10664,46.40804 3.33652,67.44709 1.2922,22.09997 2.68934,42.35724 4.13527,60.04423 0.76088,9.29441 1.50886,17.86798 2.28364,25.61594 0.77478,7.74797 1.57387,14.67099 2.33917,20.67746 0,0 0,0 0,0 0.82652,6.47845 1.63195,11.84743 2.36748,16.02603 0.4174,2.37032 0.8058,4.34236 1.13607,5.91706 0.31006,1.47047 0.55818,2.58251 0.69992,3.35216 0.14174,0.76966 0.16417,1.20134 0.003,1.28039 -0.16153,0.079 -0.50484,-0.1997 -0.97985,-0.85845 -0.47501,-0.65875 -1.0712,-1.70615 -1.71397,-3.1152 -0.69199,-1.51468 -1.44558,-3.46334 -2.21242,-5.80498 -1.35144,-4.12514 -2.76249,-9.51461 -4.14296,-15.97064 0,0 0,0 0,0 -1.28146,-5.98891 -2.57228,-12.92195 -3.80521,-20.68731 -1.23293,-7.76536 -2.40539,-16.36328 -3.54603,-25.65795 -2.17527,-17.71362 -4.1647,-38.03472 -5.87044,-60.18826 -1.62443,-21.0946 -2.99562,-43.86578 -4.01379,-67.65934 -0.11479,-2.68234 -0.22519,-5.37779 -0.33095,-8.08541 -0.82344,-21.08186 -1.30421,-41.45702 -1.46856,-60.67868 -0.19755,-23.07643 0.0666,-44.50579 0.76493,-63.50052 0.37421,-10.19562 0.85746,-19.70522 1.47626,-28.39131 0.61881,-8.6861 1.37139,-16.54869 2.20267,-23.46306 0.93183,-7.75448 1.99442,-14.33742 3.09052,-19.54005 0.97102,-4.6192 1.97229,-8.18537 2.8395,-10.5317 0.86721,-2.34634 1.55452,-3.4916 1.86458,-3.40185 z"
       id="path6958" />
    <path
       style="fill:#000000;fill-opacity:1;stroke:none"
       d="m 409.38594,360.83717 c 0,0 2.82617,-0.0984 6.31043,-0.11889 3.48474,-0.0205 10.00316,0.50396 14.70903,2.01254 0,0 0,0 0,0 8.90918,2.81834 16.17668,10.06559 15.12121,19.8759 -3.60624,15.79691 -20.05928,23.65271 -34.30019,27.67355 0,0 0,0 0,0 -13.1009,3.17055 -27.45082,4.60141 -40.57424,0.64135 -2.04236,-0.67762 -3.09373,-1.34571 -3.03149,-1.89565 0.0622,-0.54994 1.23094,-0.94154 3.30531,-1.2622 12.73216,-1.15377 25.35098,-2.79313 37.59723,-6.59112 0,0 0,0 0,0 9.61208,-3.77448 24.63252,-8.55275 27.74563,-20.11253 1.01979,-5.7451 -4.36428,-9.20914 -8.71568,-11.68892 0,0 0,0 -10e-6,-10e-6 -3.94093,-2.13764 -8.28464,-4.33051 -11.93059,-5.68531 -3.64595,-1.3548 -6.23664,-2.84871 -6.23664,-2.84871 z"
       id="path6962"
       sodipodi:nodetypes="czccccccscccccczc" />
    <path
       style="fill:#000000;fill-opacity:1;stroke:none"
       d="m 297.35175,362.87015 c -0.004,0.54155 -7.79718,2.6829 -14.04888,4.2049 -6.25169,1.522 -12.11317,2.98546 -21.49342,9.58212 -3.63284,2.90244 -5.24725,6.39086 -4.2007,10.89893 3.25978,7.43423 5.75263,8.78312 12.82576,11.29367 2.21127,0.76399 10.31762,3.02047 11.54404,3.60288 1.22641,0.58242 3.70887,1.3174 3.6715,1.8196 -0.0374,0.5022 -2.59073,0.74056 -3.94192,1.08282 -1.35119,0.34226 -5.1636,-0.42675 -7.70092,-0.44552 -10.76046,-1.76743 -18.95733,-3.85494 -25.00663,-13.8923 -3.36819,-8.51939 0.21189,-14.94035 7.38097,-20.75076 11.69929,-6.39972 14.28286,-6.53921 23.01787,-7.52286 8.73502,-0.98364 17.95621,-0.41503 17.95233,0.12652 z"
       id="path6966"
       sodipodi:nodetypes="czcccsssccczc" />
    <path
       style="fill:#000000;fill-opacity:1;stroke:none"
       d="m 251.15465,396.3494 c 0.0517,-0.0517 0.17636,-0.0389 0.35389,0.0842 0.17753,0.12308 0.40075,0.37199 0.60234,0.69059 0.26787,0.40911 0.55317,0.98337 0.82999,1.68439 0.53186,1.34197 1.0756,3.22845 1.60279,5.56007 0,0 0,0 0,0 0.52054,2.29655 1.05361,5.06056 1.56624,8.26335 0.51263,3.20278 1.00184,6.84485 1.49829,10.87868 0.98378,7.98536 1.94098,17.57601 2.86132,28.55867 0,0 0,10e-6 0,10e-6 0.90884,10.8443 1.7832,23.05832 2.61445,36.45093 1.6211,26.1175 3.08069,56.73811 4.31089,90.48323 1.17167,32.13811 2.13695,67.11998 2.82007,103.76551 0.052,2.79128 0.10247,5.59223 0.15124,8.40235 0.58595,33.76205 0.88159,66.21493 0.91307,96.45278 0,10e-6 0,2e-5 0,2e-5 0.0361,34.59577 -0.27639,66.3017 -0.92116,93.75118 -0.33566,14.30023 -0.73609,27.45837 -1.25218,39.26759 -0.51608,11.80922 -1.14483,22.26951 -1.83256,31.18364 0,0 0,0 0,10e-6 -0.35856,4.65093 -0.73091,8.89155 -1.13506,12.68194 -0.40415,3.7904 -0.83844,7.13074 -1.27946,9.9902 -0.4721,3.06325 -0.96812,5.59169 -1.46012,7.52046 -0.27889,1.0938 -0.55853,2.00213 -0.82237,2.70941 -0.49054,1.31641 -0.93135,1.93883 -1.12195,1.87385 -0.1906,-0.065 -0.14284,-0.77194 -0.0401,-2.13148 0.0542,-0.72715 0.12269,-1.63829 0.19539,-2.73848 0.12818,-1.94139 0.2623,-4.44768 0.38703,-7.51252 0.11594,-2.85927 0.2311,-6.18708 0.32411,-9.9623 0.093,-3.77521 0.16222,-7.998 0.22857,-12.64692 0,-1e-5 0,-1e-5 0,-1e-5 0.12629,-8.90187 0.2251,-19.33366 0.25,-31.11244 0.0249,-11.77877 -0.0271,-24.90483 -0.0975,-39.19398 -0.13584,-27.40747 -0.43842,-59.05821 -0.87784,-93.61513 0,-1e-5 0,-2e-5 0,-2e-5 -0.3841,-30.20127 -0.87098,-62.61524 -1.45634,-96.34427 -0.0487,-2.80737 -0.0978,-5.60564 -0.14712,-8.39429 -0.64789,-36.61114 -1.35179,-71.55938 -2.07601,-103.67415 -0.76062,-33.72427 -1.54423,-64.31362 -2.3307,-90.42103 -0.40329,-13.38702 -0.80711,-25.59008 -1.21003,-36.43126 0,0 0,-1e-5 0,-1e-5 -0.40845,-10.9843 -0.81457,-20.558 -1.21849,-28.54663 -0.20577,-4.04951 -0.39143,-7.68009 -0.59349,-10.87486 -0.20207,-3.19477 -0.41755,-5.95417 -0.61677,-8.26392 0,0 0,0 0,0 -0.2053,-2.35612 -0.39814,-4.20249 -0.58886,-5.56873 -0.10119,-0.71573 -0.19115,-1.2772 -0.2761,-1.71043 -0.0799,-0.35336 -0.11875,-0.59863 -0.15446,-0.77311 -0.0357,-0.17449 -0.0527,-0.28537 -9.8e-4,-0.33708 z"
       id="path6970" />
    <path
       style="fill:#000000;fill-opacity:1;stroke:none"
       d="m 263.03895,992.94074 c 0.24127,-0.18472 0.80997,0.0801 1.69456,0.71259 0.8846,0.63252 2.08776,1.63116 3.64503,2.88157 1.55728,1.25041 3.47179,2.75127 5.78206,4.3779 2.31026,1.6267 5.01914,3.3782 8.12255,5.137 3.07109,1.7374 6.53049,3.4752 10.36748,5.1219 3.83699,1.6467 8.05232,3.2017 12.59194,4.6095 10e-6,0 10e-6,0 10e-6,0 7.14515,2.2132 15.06374,4.0536 23.5696,5.2777 8.50585,1.2241 17.59779,1.8315 26.98937,1.7059 1.03637,-0.014 2.06893,-0.036 3.09726,-0.067 9.61838,-0.3204 18.87414,-1.352 27.35825,-3.1257 8.4841,-1.7737 16.19529,-4.2909 22.94236,-7.3143 3.89123,-1.7428 7.44592,-3.6423 10.60105,-5.6355 3.15513,-1.9932 5.91189,-4.0797 8.28046,-6.1623 2.45399,-2.15435 4.49468,-4.30859 6.1743,-6.2932 1.67961,-1.98461 3.00129,-3.80029 4.05695,-5.31356 1.05567,-1.51328 1.84883,-2.72463 2.46092,-3.52744 0.61209,-0.80282 1.04635,-1.19694 1.32248,-1.09991 0.27613,0.097 0.383,0.68279 0.27581,1.7235 -0.10719,1.04072 -0.43136,2.53693 -1.0816,4.40573 -0.65024,1.86881 -1.63,4.11088 -3.06411,6.58465 -1.43412,2.47376 -3.32591,5.17963 -5.76454,7.90873 -2.3407,2.6179 -5.15506,5.2621 -8.43942,7.7884 -3.28436,2.5262 -7.03968,4.9334 -11.18013,7.1012 -7.13448,3.7356 -15.39488,6.8871 -24.47299,9.1108 -9.07811,2.2238 -18.96957,3.5182 -29.14629,3.8389 -1.08907,0.038 -2.1831,0.064 -3.28155,0.08 -9.95412,0.1437 -19.62235,-0.6443 -28.63854,-2.2037 -9.0162,-1.5593 -17.3782,-3.888 -24.83686,-6.6801 0,0 0,0 0,0 -4.753,-1.7773 -9.14869,-3.7681 -13.10894,-5.8819 -3.96025,-2.1137 -7.48555,-4.3495 -10.54932,-6.586 -3.10396,-2.2619 -5.73048,-4.5413 -7.8768,-6.6766 -2.14633,-2.1353 -3.81531,-4.1252 -5.05832,-5.82765 -1.24301,-1.70244 -2.06324,-3.11622 -2.52036,-4.13747 -0.45712,-1.02125 -0.55394,-1.64902 -0.31267,-1.83374 z"
       id="path6974" />
  </g>
</svg>
