<?xml version="1.0" encoding="utf-8"?>
<!-- Generator: Adobe Illustrator 16.0.0, SVG Export Plug-In . SVG Version: 6.00 Build 0)  -->
<!DOCTYPE svg PUBLIC "-//W3C//DTD SVG 1.1//EN" "http://www.w3.org/Graphics/SVG/1.1/DTD/svg11.dtd">
<svg version="1.1" id="Layer_1" xmlns="http://www.w3.org/2000/svg" xmlns:xlink="http://www.w3.org/1999/xlink" x="0px" y="0px"
	 width="56px" height="100px" viewBox="0 0 56 100" enable-background="new 0 0 56 100" xml:space="preserve">
<g>
	<rect x="0.5" y="0.5" fill="#B3B3B3" stroke="#000000" stroke-miterlimit="10" width="55" height="99"/>
	<g id="nKdmTt.tif">
		<g>
			<path d="M39.2812,35.5503c0,0.8599,0,1.7197,0,2.5796c-0.5928,1.5991-1.1182,3.2266-1.791,4.791
				c-1.2227,2.8433-1.958,5.6831-1.5498,8.874c0.2188,1.7168-0.2402,3.6055-0.7432,5.3145
				c-1.084,3.6719-1.9746,7.2891-1.0527,11.165c0.2988,1.2471,0.0156,2.626,0.0586,3.9434c0.0352,1.0566,0.125,2.1143,0.2578,3.1631
				c0.2012,1.584,0.5908,3.1562,0.6533,4.7412c0.0508,1.2803-0.3545,2.5732-0.3838,3.8643
				c-0.0195,0.8887,0.1152,1.8379,0.4307,2.666c0.8633,2.2715,0.0322,4.6133,0.3389,6.9473c0.2246,1.7031-0.4844,4-1.9512,5.582
				c-4.1094,0-8.2168,0-12.3262,0c0-0.3828,0-0.7656,0-1.1465c1.8369-0.4785,3.6885-0.9082,5.5-1.4648
				c0.4951-0.1533,1.1797-0.6406,1.252-1.0625c0.3008-1.8008,0.0713-3.6875,0.9404-5.3984c0.0791-0.1562,0.0322-0.375,0.0381-0.5664
				c0.0996-2.9824,0.1836-5.9668,0.3008-8.9492c0.1074-2.6895-1.3486-5.248-0.6504-7.9941
				c0.0684-0.2695-0.2158-0.6172-0.3047-0.9375c-0.6602-2.3789-1.4629-4.7305-1.9219-7.1484
				c-0.4609-2.4229-0.5635-4.9131-0.8477-7.3711c-0.1924-1.6699-0.6318-3.3389-0.5938-5c0.0488-2.0659,0.4941-4.1216,0.7188-6.187
				c0.0439-0.3984-0.0547-1.1357-0.2344-1.1855c-2.1797-0.6035-2.0469-2.3218-1.8516-3.9326
				c0.1133-0.9321,0.752-1.7881,0.9756-2.7212c0.8418-3.5142,1.5889-7.0508,2.4189-10.5679
				c0.2471-1.0459,0.375-2.3311,1.0527-3.0176c1.1172-1.1318,0.8008-1.752-0.2109-2.4507c0.2305-1.0273,0.6064-1.9971,0.6348-2.9775
				c0.0625-2.1372-0.2656-4.3799,2.4883-5.2031c0.0254-0.0073,0.0283-0.0869,0.041-0.1328c0.1904,0,0.3828,0,0.5732,0
				c0.9053,0.1548,1.8584,0.1772,2.708,0.4873c3.7969,1.3872,4.9736,5.979,2.374,9.0747c-1.4268,1.7002-1.4609,2.7158-0.1387,4.5684
				c0.9443,1.3223,1.748,2.6807,1.9697,4.355C38.6025,33.3682,38.9971,34.4521,39.2812,35.5503z M27.8672,33.4561
				c0.1621,0.064,0.3242,0.1284,0.4863,0.1924c0.626-1.2261,1.252-2.4521,1.877-3.6782c-0.1484-0.0781-0.2979-0.1558-0.4453-0.2334
				C28.6943,30.7285,27.7109,31.7788,27.8672,33.4561z"/>
		</g>
	</g>
</g>
</svg>
