<?xml version="1.0" encoding="utf-8"?>
<!-- Generator: Adobe Illustrator 16.0.0, SVG Export Plug-In . SVG Version: 6.00 Build 0)  -->
<!DOCTYPE svg PUBLIC "-//W3C//DTD SVG 1.1//EN" "http://www.w3.org/Graphics/SVG/1.1/DTD/svg11.dtd">
<svg version="1.1" id="Layer_1" xmlns="http://www.w3.org/2000/svg" xmlns:xlink="http://www.w3.org/1999/xlink" x="0px" y="0px"
	 width="67.9268px" height="101px" viewBox="0 0 67.9268 101" enable-background="new 0 0 67.9268 101" xml:space="preserve">
<rect x="0.5" y="0.5" fill="#F1F2F2" stroke="#010101" stroke-miterlimit="10" width="66.9268" height="100"/>
<g id="_x36_xOkMc.tif_2_">
	<g>
		<path fill-rule="evenodd" clip-rule="evenodd" fill="#FFFFFF" d="M32.4688,39.7383c8.9941,1.6934,10.2197-13.8936,0-11.5996
			C25.4312,29.7178,28.0762,38.9131,32.4688,39.7383z M44.6484,69.6094c4.3965,0.7109,3.1914-5.6396,3.1914-10.7305
			c0-5.2383,0.5957-10.5137-0.5781-13.3398c-2.1055-5.0518-12.1772-5.7842-20.2998-4.6377
			c-8.1738,1.1504-6.9629,8.3682-6.9629,17.9775c0,5.6592-0.6382,10.7305,2.6079,10.7305c5.6685,0,0.6567-15.7646,3.1929-19.4307
			c1.0503,11.5088,0.5806,26.6006,0.5806,39.4404c0,4.8965-0.5557,9.8828,3.479,9.8604c4.8789-0.0273,3.4795-8.376,3.4795-13.6318
			c0-6.0215-0.4766-12.2686,0.5825-16.5283c1.0635,4.5684,0.5752,9.4326,0.5752,15.3701c0,3.0312-1.1499,13.1533,1.7441,14.499
			c6.0815,2.834,5.2148-5.9033,5.2148-11.0195c0-9.1406,0-16.9688,0-25.5195c0-4.2334-0.605-10.6973,0.5806-12.4707
			c0.0303-0.0479,0.2466,0.0371,0.2939,0C44.0938,54.6074,40.1084,68.874,44.6484,69.6094z"/>
		<path fill-rule="evenodd" clip-rule="evenodd" d="M32.4688,28.1387c10.2197-2.2939,8.9941,13.293,0,11.5996
			C28.0762,38.9131,25.4312,29.7178,32.4688,28.1387z"/>
		<path fill-rule="evenodd" clip-rule="evenodd" d="M42.3301,50.1787c-0.0474,0.0371-0.2637-0.0479-0.2939,0
			c-1.1855,1.7734-0.5806,8.2373-0.5806,12.4707c0,8.5508,0,16.3789,0,25.5195c0,5.1162,0.8667,13.8535-5.2148,11.0195
			c-2.894-1.3457-1.7441-11.4678-1.7441-14.499c0-5.9375,0.4883-10.8018-0.5752-15.3701
			c-1.0591,4.2598-0.5825,10.5068-0.5825,16.5283c0,5.2559,1.3994,13.6045-3.4795,13.6318c-4.0347,0.0225-3.479-4.9639-3.479-9.8604
			c0-12.8398,0.4697-27.9316-0.5806-39.4404c-2.5361,3.666,2.4756,19.4307-3.1929,19.4307c-3.2461,0-2.6079-5.0713-2.6079-10.7305
			c0-9.6094-1.2109-16.8271,6.9629-17.9775c8.1226-1.1465,18.1943-0.4141,20.2998,4.6377
			c1.1738,2.8262,0.5781,8.1016,0.5781,13.3398c0,5.0908,1.2051,11.4414-3.1914,10.7305
			C40.1084,68.874,44.0938,54.6074,42.3301,50.1787z"/>
	</g>
</g>
</svg>
